<svg width="25" height="24" viewBox="0 0 25 24" fill="none" xmlns="http://www.w3.org/2000/svg">
<path d="M6.69125 12.469L4.94 15.0227C4.88056 15.1102 4.85248 15.2152 4.86031 15.3208C4.86815 15.4263 4.91143 15.526 4.98313 15.6038C5.05483 15.6816 5.15071 15.7328 5.25523 15.7492C5.35974 15.7656 5.46669 15.7461 5.55875 15.694L11.2513 12.4052C11.323 12.3647 11.3828 12.3059 11.4243 12.2347C11.4659 12.1636 11.4878 12.0826 11.4878 12.0002C11.4878 11.9178 11.4659 11.8369 11.4243 11.7657C11.3828 11.6946 11.323 11.6357 11.2513 11.5952L5.55875 8.30647C5.46669 8.25434 5.35974 8.23488 5.25523 8.25127C5.15071 8.26762 5.05483 8.31888 4.98313 8.39665C4.91143 8.47443 4.86815 8.57418 4.86031 8.67967C4.85248 8.78515 4.88056 8.89019 4.94 8.97772L6.69125 11.5315C6.15436 11.5545 5.61823 11.4702 5.1143 11.2836C4.61034 11.097 4.14866 10.8118 3.75624 10.4446C3.36382 10.0774 3.04855 9.63573 2.82885 9.1453C2.60916 8.65488 2.48946 8.12557 2.47674 7.5883C2.46403 7.05108 2.55856 6.51667 2.75481 6.01642C2.95105 5.51613 3.24508 5.05998 3.61969 4.6747C3.9943 4.28939 4.44196 3.98264 4.93655 3.77238C5.4311 3.56215 5.96263 3.45261 6.5 3.4502H20.0375C20.1618 3.4502 20.2811 3.40082 20.369 3.31291C20.4569 3.22501 20.5063 3.10577 20.5063 2.98145C20.5063 2.85713 20.4569 2.73791 20.369 2.65C20.2811 2.56209 20.1618 2.5127 20.0375 2.5127H6.5C5.83749 2.51147 5.18143 2.64244 4.57018 2.89794C3.95893 3.15343 3.4048 3.52832 2.94025 4.00064C2.4757 4.47295 2.11006 5.03324 1.86475 5.64865C1.61943 6.26403 1.49937 6.92219 1.51159 7.58459C1.52382 8.24699 1.66808 8.90028 1.93594 9.5062C2.2038 10.1121 2.58986 10.6585 3.07153 11.1134C3.55319 11.5683 4.12077 11.9224 4.74103 12.1552C5.36128 12.388 6.02176 12.4946 6.68375 12.469H6.69125ZM10.0663 12.0002L6.875 13.8452L7.95875 12.2665C8.00578 12.1847 8.03518 12.094 8.045 12.0002C8.03518 11.9064 8.00578 11.8157 7.95875 11.734L6.875 10.1552L10.0663 12.0002Z" fill="white"/>
<path d="M18.2974 11.5311L20.0487 8.9774C20.1055 8.8892 20.1314 8.78461 20.1222 8.6801C20.113 8.57559 20.0693 8.47711 19.9979 8.4002C19.9266 8.32325 19.8317 8.27225 19.7282 8.25522C19.6246 8.2382 19.5184 8.25612 19.4262 8.30615L13.7337 11.5949C13.6629 11.6362 13.6041 11.6953 13.5633 11.7663C13.5224 11.8374 13.5009 11.918 13.5009 11.9999C13.5009 12.0819 13.5224 12.1624 13.5633 12.2334C13.6041 12.3045 13.6629 12.3636 13.7337 12.4049L19.4262 15.6936C19.5184 15.7437 19.6246 15.7616 19.7282 15.7446C19.8317 15.7275 19.9266 15.6765 19.9979 15.5996C20.0693 15.5227 20.113 15.4242 20.1222 15.3197C20.1314 15.2152 20.1055 15.1106 20.0487 15.0224L18.2974 12.4686C18.8349 12.4455 19.3715 12.5298 19.8759 12.7167C20.3804 12.9036 20.8424 13.1894 21.235 13.5571C21.6276 13.9249 21.9429 14.3673 22.1623 14.8584C22.3817 15.3496 22.5009 15.8796 22.5129 16.4174C22.5249 16.9552 22.4294 17.49 22.232 17.9904C22.0347 18.4908 21.7395 18.9468 21.3636 19.3317C20.9878 19.7166 20.5389 20.0226 20.0433 20.2318C19.5477 20.441 19.0154 20.5491 18.4774 20.5499H4.95117C4.82686 20.5499 4.70761 20.5993 4.61971 20.6872C4.53181 20.7751 4.48242 20.8943 4.48242 21.0186C4.48242 21.143 4.53181 21.2622 4.61971 21.3501C4.70761 21.438 4.82686 21.4874 4.95117 21.4874H18.4774C19.14 21.4891 19.7964 21.3585 20.4079 21.1034C21.0194 20.8482 21.5739 20.4736 22.0388 20.0014C22.5037 19.5292 22.8697 18.969 23.1154 18.3536C23.361 17.7382 23.4814 17.0799 23.4694 16.4174C23.4574 15.7549 23.3133 15.1014 23.0456 14.4953C22.7779 13.8891 22.3919 13.3425 21.9102 12.8874C21.4285 12.4324 20.8609 12.078 20.2405 11.8451C19.6202 11.6123 18.9596 11.5055 18.2974 11.5311ZM14.9224 11.9999L18.1249 10.1549L17.0374 11.7336C16.9915 11.8156 16.9634 11.9063 16.9549 11.9999C16.9634 12.0935 16.9915 12.1842 17.0374 12.2661L18.1249 13.8449L14.9224 11.9999Z" fill="white"/>
</svg>
